<?xml version="1.0" encoding="UTF-8"?>
<svg width="32px" height="27px" viewBox="0 0 32 27" version="1.1" xmlns="http://www.w3.org/2000/svg" xmlns:xlink="http://www.w3.org/1999/xlink">
    <title>Icon_Chat_button</title>
    <g id="Icon_Chat_button" stroke="none" stroke-width="1" fill="none" fill-rule="evenodd">
        <g id="Chat_icon" fill="#FFFFFF" fill-rule="nonzero">
            <path d="M31,0 L10,0 C9.44727,0 9,0.44775 9,1 L9,6 L1,6 C0.44727,6 0,6.44775 0,7 L0,20 C0,20.5523 0.44727,21 1,21 L3,21 L3,26 C3,26.3906 3.22754,26.7451 3.58203,26.9087 C3.71582,26.9702 3.8584,27 4,27 C4.23438,27 4.46582,26.9175 4.65039,26.7593 L11.3701,21 L21,21 C21.5527,21 22,20.5523 22,20 L22,16.9433 L27.4189,20.814 C27.5918,20.937 27.7949,21 28,21 C28.1562,21 28.3135,20.9634 28.458,20.8892 C28.791,20.7178 29,20.3745 29,20 L29,16 L31,16 C31.5527,16 32,15.5523 32,15 L32,1 C32,0.44775 31.5527,0 31,0 Z M20,19 L11,19 C10.7617,19 10.5303,19.0855 10.3496,19.2407 L5,23.8257 L5,20 C5,19.4477 4.55273,19 4,19 L2,19 L2,8 L20,8 L20,19 Z M30,14 L28,14 C27.4473,14 27,14.4477 27,15 L27,18.0566 L22,14.4853 L22,7 C22,6.44775 21.5527,6 21,6 L11,6 L11,2 L30,2 L30,14 Z M15,13 C15,12.4477 15.4477,12 16,12 C16.5523,12 17,12.4477 17,13 C17,13.5523 16.5523,14 16,14 C15.4477,14 15,13.5523 15,13 Z M10,13 C10,12.4477 10.4477,12 11,12 C11.5523,12 12,12.4477 12,13 C12,13.5523 11.5523,14 11,14 C10.4477,14 10,13.5523 10,13 Z M7,13 C7,13.5523 6.55231,14 6,14 C5.44769,14 5,13.5523 5,13 C5,12.4477 5.44769,12 6,12 C6.55231,12 7,12.4477 7,13 Z" id="Shape"></path>
        </g>
    </g>
</svg>